/* XPM */
static char *e74c4113927e416e88b72fd13f3bc81dH4EjHDFHtEBaM5Hu[] = {
/* columns rows colors chars-per-pixel */
"32 32 203 2 ",
"   c None",
".  c #00091E",
"X  c #00091F",
"o  c #000A1E",
"O  c #000B1F",
"+  c #020B21",
"@  c #000B22",
"#  c #000B23",
"$  c #000B24",
"%  c #000C25",
"&  c #000D25",
"*  c #000C26",
"=  c #000D26",
"-  c #000D27",
";  c #000E27",
":  c #000D28",
">  c #000E28",
",  c #000E29",
"<  c #000F29",
"1  c #010E2A",
"2  c #000F2A",
"3  c #010F2A",
"4  c #000F2B",
"5  c #00102A",
"6  c #01102B",
"7  c #051028",
"8  c #01102C",
"9  c #01112C",
"0  c #01112D",
"q  c #00122D",
"w  c #01122D",
"e  c #00112E",
"r  c #01132E",
"t  c #00122F",
"y  c #01122F",
"u  c #02122F",
"i  c #001230",
"p  c #001231",
"a  c #001331",
"s  c #001332",
"d  c #011432",
"f  c #021433",
"g  c #071631",
"h  c #061632",
"j  c #071736",
"k  c #061A37",
"l  c #041839",
"z  c #041939",
"x  c #041A3C",
"c  c #081D3E",
"v  c #061D40",
"b  c #051E44",
"n  c #0F2141",
"m  c #0C2143",
"M  c #092247",
"N  c #052B42",
"B  c #062248",
"V  c #06244A",
"C  c #092248",
"Z  c #152848",
"A  c #192D4C",
"S  c #06344D",
"D  c #0B2650",
"F  c #072A57",
"G  c #0E2852",
"H  c #062A59",
"J  c #062B5A",
"K  c #102A51",
"L  c #0F3361",
"P  c #043169",
"I  c #0E356D",
"U  c #1C3864",
"Y  c #113568",
"T  c #033373",
"R  c #073772",
"E  c #0E3A73",
"W  c #0B3A75",
"Q  c #0A3D7A",
"!  c #123E75",
"~  c #123F79",
"^  c #094158",
"/  c #09465A",
"(  c #0A495D",
")  c #094E64",
"_  c #0D5A69",
"`  c #0A5F6D",
"'  c #164275",
"]  c #096172",
"[  c #0D6675",
"{  c #036F7B",
"}  c #0C6878",
"|  c #0A6E7A",
" . c #0F4581",
".. c #0A4184",
"X. c #0F478B",
"o. c #08458C",
"O. c #09458C",
"+. c #114786",
"@. c #104B84",
"#. c #074792",
"$. c #134F97",
"%. c #0F519D",
"&. c #135493",
"*. c #1A5294",
"=. c #0B7681",
"-. c #0D7C88",
";. c #176F96",
":. c #0D54A5",
">. c #0F55A6",
",. c #0A57AD",
"<. c #1959A4",
"1. c #1058A9",
"2. c #175AAB",
"3. c #155DAA",
"4. c #145CAD",
"5. c #1E5DA8",
"6. c #195BAC",
"7. c #0659B2",
"8. c #045AB4",
"9. c #0B5AB1",
"0. c #045DBA",
"q. c #065DBA",
"w. c #055EBD",
"e. c #0A5DB9",
"r. c #085EBB",
"t. c #0E5FBF",
"y. c #1479A4",
"u. c #0F63BE",
"i. c #1363B2",
"p. c #1362BB",
"a. c #1762B8",
"s. c #1765B8",
"d. c #035EC0",
"f. c #005FC2",
"g. c #005FC3",
"h. c #0363C6",
"j. c #0462C4",
"k. c #0662C4",
"l. c #0463C7",
"z. c #0464C7",
"x. c #0A62C0",
"c. c #0C61C0",
"v. c #0F63C0",
"b. c #0D65C5",
"n. c #0062C8",
"m. c #0165CB",
"M. c #0667CB",
"N. c #0366CC",
"B. c #0166CE",
"V. c #0266CE",
"C. c #0267CE",
"Z. c #0367CE",
"A. c #0466CF",
"S. c #0864C8",
"D. c #0966C8",
"F. c #0864CA",
"G. c #0966CA",
"H. c #0968CC",
"J. c #0067D0",
"K. c #0167D0",
"L. c #0067D1",
"P. c #0167D1",
"I. c #0068D1",
"U. c #0068D2",
"Y. c #0068D3",
"T. c #0069D3",
"R. c #0269D3",
"E. c #0468D0",
"W. c #0069D4",
"Q. c #0069D5",
"!. c #006AD6",
"~. c #006AD7",
"^. c #006BD7",
"/. c #0E6DD2",
"(. c #0069D8",
"). c #006AD8",
"_. c #006BD8",
"`. c #006BDA",
"'. c #006CD9",
"]. c #006CDB",
"[. c #016DDB",
"{. c #026CDD",
"}. c #036FDE",
"|. c #046FDC",
" X c #066FDC",
".X c #0C75DF",
"XX c #1176E4",
"oX c #068789",
"OX c #05878D",
"+X c #0A8189",
"@X c #03898B",
"#X c #018B8B",
"$X c #028D8D",
"%X c #008E8C",
"&X c #008F8C",
"*X c #008F8D",
"=X c #018F8E",
"-X c #028F8E",
";X c #00908D",
":X c #00918D",
">X c #01908F",
",X c #0A8498",
"<X c #029697",
/* pixels */
"                                                                ",
"                        , , 8 , , , ,                           ",
"                  , , , , 5 , 5 8 , 5 , , ,                     ",
"              , 5 , 8 5 5 , 8 , , 5 , 5 5 , 5 ,                 ",
"            , , 8 , 5 , 5 , 5 5 5 , , 8 , 5 5 , ,               ",
"          , , 5 , 5 , 8 , 5 , 5 , 8 5 5 8 , , 8 5 ,             ",
"        , , 5 , 8 , 5 5 8 r 8 r 8 8 8 5 , 5 , , , 5 ,           ",
"      , 8 5 , 8 , , = B &.=.{ | } ` _ ) ( ^ S 4 5 , , =         ",
"      , , 8 , 8 , , V n.A.;.-X$X;X;X$X$X-X-X$X] , 5 8 ,         ",
"    , 5 5 , 5 , 5 v d.E.E.d.-.-X$X$X$X<XoXOX,Xy.! = , 5 =       ",
"    , , , 8 , 5 = *.H.E.J.Y.i.oX<X+X[ / N 3.n.).o.@ , , ,       ",
"    , 5 5 , 8 , @ b.p.J.J.J.J.@.k ; 5 , h q.E.Q. .$ , 8 , @     ",
"  , 5 , 8 , 5 , j }.v.v.Y.J.J.w.z = 5 5 M j.J.'.T = 8 , 5 =     ",
"  , , 8 , 5 , = I Q.J.4.M.J.J.Q.1.o 5 , F V.J.Q.' = , 5 , ,     ",
"  , 8 , 8 , 8 # %.E.J.Q.6.J.J.J.Q.~ = , P Q.E.Q.W = 8 , 5 ,     ",
"  5 , 5 , 5 , 7 x.J.J.J.$.q.J.J.J.l.b 5 o.E.J.).L = , 5 , 5     ",
"  , , 8 , 8 , m l.J.J.J.G Y Q.E.J.E.:., ,.J.J.).U , 5 , 8 5     ",
"  , 5 , 5 , 5 H m.J.J.F.@ @ >.Q.J.J.}.E b.J.J.).V , , 8 , ,     ",
"  , , 5 , 8 5 R J.J.Q.@.@ , x j.J.J.V.J.a.J.J.).A , 4 , , =     ",
"    8 , 5 , , #.J.J.|.n = , , Q J.J.J.J.u.G.J.}.Z , , 4 5 o     ",
"    , 5 5 , s 9.J.J.r., 8 , 5 h r.J.J.J.J.6.J..Xs 5 , 5 ,       ",
"    , , , , s /.J.Q..., , 5 , , C  XJ.J.J.V.5.XXf , 8 , =       ",
"      5 8 , K {.J.E.J 4 8 , 8 , = X.Q.J.J.J.G.s.f , 5 ,         ",
"      = , $ E n.g.7.v , , 5 , 5 , z 7.g.g.g.d.<.s 5 , =         ",
"        , 5 8 f s s , , 5 , 8 , , 5 s s s s s s , , ,           ",
"          , 5 , , 5 , 8 , 8 , 5 5 , , , , , , , 5 ,             ",
"            , , 5 , , 5 5 , 5 , , 8 , 5 , 5 , 5 ,               ",
"              = , , 5 , , 8 , 8 5 , 5 , 5 , , =                 ",
"                  = , 5 , 5 5 , , , 5 , , =                     ",
"                      # = , , 5 8 , = o                         ",
"                                                                ",
"                                                                "
};
