/* XPM */
static char *_990b618bda64ec580b77f660577f89eamDmeRtfwxZGdn8t[] = {
/* columns rows colors chars-per-pixel */
"80 80 207 2 ",
"   c None",
".  c #00051D",
"X  c #00081F",
"o  c #000621",
"O  c #000C25",
"+  c #000F2A",
"@  c #04122C",
"#  c #0A152D",
"$  c #111B2F",
"%  c #041532",
"&  c #0A1532",
"*  c #0C1A34",
"=  c #02143A",
"-  c #04193B",
";  c #0B1C3B",
":  c #011832",
">  c #101F3C",
",  c #121C33",
"<  c #0D213F",
"1  c #13213C",
"2  c #1A233B",
"3  c #001D46",
"4  c #011D4A",
"5  c #091F43",
"6  c #151F40",
"7  c #05224B",
"8  c #0A244A",
"9  c #0C2B4C",
"0  c #072246",
"q  c #122343",
"w  c #12254A",
"e  c #10284B",
"r  c #1A2B49",
"t  c #19334B",
"y  c #022557",
"u  c #0A2652",
"i  c #0B2C54",
"p  c #092E5C",
"a  c #072B57",
"s  c #142C54",
"d  c #0D315D",
"f  c #0A3859",
"g  c #1D3055",
"h  c #12325D",
"j  c #193358",
"k  c #17385C",
"l  c #263B5B",
"z  c #0E396D",
"x  c #143264",
"c  c #1A3562",
"v  c #133A63",
"b  c #1F3860",
"n  c #13366A",
"m  c #14396C",
"M  c #1B3B6C",
"N  c #0F3E7B",
"B  c #113C76",
"V  c #183F74",
"C  c #223E6C",
"Z  c #213F70",
"A  c #0E435E",
"S  c #1C4659",
"D  c #0C4367",
"F  c #064A68",
"G  c #164A6B",
"H  c #0D596C",
"J  c #0D5068",
"K  c #195668",
"L  c #14427C",
"P  c #1A457F",
"I  c #154874",
"U  c #005775",
"Y  c #165D78",
"T  c #21416D",
"R  c #224C67",
"E  c #21506E",
"W  c #254A7D",
"Q  c #224576",
"!  c #334E7F",
"~  c #2E517F",
"^  c #08687C",
"/  c #136476",
"(  c #10707A",
")  c #23667D",
"_  c #0B3F86",
"`  c #0C448B",
"'  c #0F4B8D",
"]  c #144383",
"[  c #1D4A85",
"{  c #14458B",
"}  c #10498E",
"|  c #1F4E8B",
" . c #195089",
".. c #144C92",
"X. c #184D93",
"o. c #1E5595",
"O. c #16529E",
"+. c #1C559C",
"@. c #214D84",
"#. c #224B8A",
"$. c #2C4C80",
"%. c #24538C",
"&. c #2D5A80",
"*. c #31578C",
"=. c #245493",
"-. c #2B5995",
";. c #22549B",
":. c #255A9E",
">. c #285997",
",. c #0F6081",
"<. c #156E82",
"1. c #1C6C8B",
"2. c #186885",
"3. c #0D7384",
"4. c #067D89",
"5. c #097D87",
"6. c #157C8D",
"7. c #0D7994",
"8. c #167C92",
"9. c #2A618E",
"0. c #34608E",
"q. c #2D6E93",
"w. c #0A51A4",
"e. c #0052AC",
"r. c #0D57AD",
"t. c #1353A3",
"y. c #165AA4",
"u. c #1E59A4",
"i. c #125AAD",
"p. c #1B5DAB",
"a. c #1656A6",
"s. c #095AB5",
"d. c #0D5EBA",
"f. c #065EBE",
"g. c #135CB1",
"h. c #195FBB",
"j. c #135FBB",
"k. c #245AA3",
"l. c #295DA2",
"z. c #215DA8",
"x. c #355FA4",
"c. c #1A60AF",
"v. c #0761BF",
"b. c #0D62BD",
"n. c #1661B7",
"m. c #1B60B3",
"M. c #1463BC",
"N. c #1E65BD",
"B. c #2860A6",
"V. c #2464A8",
"C. c #366BAE",
"Z. c #2464B3",
"A. c #2268BD",
"S. c #2A67B7",
"D. c #025EC3",
"F. c #0157C6",
"G. c #0562C3",
"H. c #0A63C4",
"J. c #0266CE",
"K. c #0A65CA",
"L. c #0D6ACC",
"P. c #0468CE",
"I. c #1566C2",
"U. c #156BC7",
"Y. c #136ACB",
"T. c #1A6CCB",
"R. c #1965C6",
"E. c #1D71CB",
"W. c #1A71C9",
"Q. c #0067D0",
"!. c #0169D4",
"~. c #0B6BD2",
"^. c #0067DB",
"/. c #026BDA",
"(. c #0A6FDC",
"). c #106DD2",
"_. c #0B71DD",
"`. c #1273D6",
"'. c #1972D6",
"]. c #1674DD",
"[. c #1E77DF",
"{. c #1B78DD",
"}. c #2772C3",
"|. c #046DE4",
" X c #0B73E1",
".X c #137CE3",
"XX c #1C7CE1",
"oX c #237CE6",
"OX c #05828C",
"+X c #008E8C",
"@X c #08898E",
"#X c #09828F",
"$X c #148085",
"%X c #00918D",
"&X c #038E93",
"*X c #0A8B93",
"=X c #0C8D9A",
"-X c #108697",
";X c #168996",
":X c #049394",
">X c #0A9596",
",X c #07959B",
"<X c #139A9C",
"1X c #1789A0",
"2X c #1295A2",
"3X c #1C82E4",
"4X c #4790E2",
/* pixels */
"                                                                                                                                                                ",
"                                                                                                                                                                ",
"                                                                                                                                                                ",
"                                                                  O + + + + + + + + + + + +                                                                     ",
"                                                          + + + + + + + + + + + + + + + + + + + + +                                                             ",
"                                                    O + + + + + + + + + + + + + + @ + + + + + + + + + + O                                                       ",
"                                                + + + + + + + + + + + + + + + @ + + + + + + + + + + + + @ + +                                                   ",
"                                            + + + + + + + + + + + + + + + + + + + + + + + + + + + + + + + + + + +                                               ",
"                                        + + + + + + + + + + + + + + + + + + + + + + + + + + + + + + + + + + + + + + O                                           ",
"                                    O + + + + + + + + + + + + + + + + + + + + + @ + + + + + + + + + + + + + + + + + + + O                                       ",
"                                  + + + + + + + + + + + + + + + + + + + + + + + + + + + + + + + + + + + + + + @ + + + + + +                                     ",
"                                + + + + + + + + + + + + + + + + + + + + + + + + + + + + + + + + + + + + + + + + + + + + + + +                                   ",
"                              + + + + + + + + + + + + + + + + + + + + + + + + + + + + + + + + + + + + + + + + + + + + + + + + +                                 ",
"                            + + + + + % + + + + + @ + + + + + + + + + + + + + + + + + + + + + @ + + + + + + + + + + + + + + + + +                               ",
"                          + + + + + + + + + + + + + + + + + + + + + + + + + + + + + + + + + + + + + + + + + + + + + + + + + + + + +                             ",
"                        + + + + + + + + + + + + + + + + + + + + @ + + + + + + + + + + + + + + + @ + + + + + + + + + + + + + + + + + +                           ",
"                      + + + + + + + + + + + + + + + + + + + + + + O + + + + + @ + + O @ + + + + + + + + + + + + + + + + + + + + + + + +                         ",
"                    + + + + + + + + + + + + + + + + + + + + + O : = ; # O o O O O O O O O O O O + + + + + + + + + + @ O + + + + + + + + +                       ",
"                  O + + + + + + + + + @ + + + + + + + + + O - b D U / H F F K D f S k i g l w > 2 # o o O O o O O + @ @ + + + + + + + + + O                     ",
"                  + + + + + + + + + + + + + + + + + + @ + * } }.W -X%X%X,X>X<X*X*X;X;X5.3.6.3.( (  ./ ) I G E v i q X @ + + + + + + + + + +                     ",
"                + + + + + @ + + + + + + + + + + + + + O * } !.!.N.E :X+X+X+X+X+X%X+X%X%X%X%X%X%X:X:X>X<X*X&X*X#X4.3.k O O + + + + @ + + + + O                   ",
"                + + + + + + + + + + @ + + + + + + @ O % ' !.Q.Q./.:.2.%X+X+X+X+X%X+X+X+X+X+X+X+X+X+X+X+X+X+X+X+X%X&X4.J % O + + + + + + + + + O                 ",
"              + + + + + + + + + + + + + + + + + + O @ ' /.Q.Q.Q.Q.!.~ ;X+X+X+X+X+X+X+X+X+X+X+X+X+X+X+X+X+X+X+X+X+X+X+X&X1.< + + + + + + + + + +                 ",
"              + + + + + + + + + + + + + + + + + @ @ ` /.Q.Q.Q.Q.Q.Q.Y.R >X+X+X+X+X+X+X+X+X+X+X+X+X+X+X+X+X+X+X+X+X+X%X+X2Xq.; + + + + + + + + +                 ",
"            + + + + + + + + + + + + + + + + + + @ _ /.Q.Q.Q.Q.Q.Q.Q.Q.Z.Y @X%X+X+X+X+X+X+X+X+X+X+X+X+X+X+X+X+X+X&X-X1.0.;.R.u + + + + + + + + + +               ",
"            + + + + + + + + + + + + + + + + + + k _.Q.Q.Q.Q.Q.Q.Q.Q.Q.J.@.6.%X+X+X+X+X+X+X+X%X%X+X%X@X@XOX7.2.-.x.z.Y.^.!.|.y + + + + + + + + + +               ",
"          + + + + + + + + + + + + + + + + + @ & 4Xl.!.Q.Q.Q.Q.Q.Q.Q.Q.Q.H.&.*X+X+X+X+X+X%X%X>X@XOX6.1.I j . C.(.!.!.Q.Q.Q.|.y O + + + + + + @ + + O             ",
"          + + + + + + + + + + + + + + + + @ O l ^.l.I.!.Q.Q.Q.Q.Q.Q.Q.Q.!.m.Y +X%X+X>X@X5.( 2.G j & o o O O T.Q.Q.Q.Q.Q.Q..Xa O + + + + + + + + + +             ",
"          + + + + + + + + + + + + + + + + + O @.Q.L.=.P.J.Q.Q.Q.Q.Q.Q.J.Q.K.o.<.4.^ H D 9 6 o o O O + + O 2 ~.J.Q.Q.Q.Q.Q.XXp O + + + + + + + + + +             ",
"        + + + + + + @ + + + + + + + + + @ + O +.Q.J.m.u./.Q.Q.Q.Q.Q.Q.Q.Q.!.d.I 8 ; + o O O + + @ @ + + O T J.J.Q.Q.Q.Q.Q.`.u + + + + + + + + + + + O           ",
"        + + + + + + + + + + + + + + + + + + o T.J.Q.K.k.M.Q.Q.Q.Q.Q.Q.Q.Q.Q.!.w.- O + + @ + + + + + + + O -.P.Q.Q.Q.Q.Q.Q.D.4 + + + + + @ + + + + + +           ",
"        + + + + + + + + + + + + + + + + + + ; ~.Q.Q.Q.h.l.!.Q.Q.Q.Q.Q.Q.Q.Q.Q.!.L @ + + + + + + + @ + + X S.Q.Q.Q.Q.Q.Q.!.F.4 O + + + + + + + + + + +           ",
"        + + + + + + + + + + + + + + + + + O M Q.Q.Q.Q.~.u.w.!.Q.Q.Q.Q.Q.Q.Q.Q.Q.~.s @ @ O @ + + + + + + & Y.Q.Q.Q.Q.Q.J.Q.K.7 + + + @ + + + + + + + + O         ",
"      + + + + + + + + + + + + + + + + + + o ..K.Q.Q.Q.Q.d.k.K.Q.Q.Q.Q.Q.Q.J.Q.Q.Q.N.- + + + + + + + + O r G.Q.Q.Q.Q.Q.Q.!.U.7 O + + + + + + + + + + + O         ",
"      + + + + + + + + + + + + + + + + + + o R.Q.Q.Q.Q.Q./.o.p.!.Q.Q.Q.Q.Q.Q.Q.Q.J./.P @ + + + + + + + O T K.Q.Q.Q.Q.Q.Q.Q.E.9 + + + + + + + + + + + + O         ",
"      + + + + + + + + + + + + + + + + + + 2 D.Q.Q.Q.Q.Q.Q.K.>.b.Q.Q.Q.Q.Q.Q.Q.Q.Q.Q.{.e + + + + + + + X ] J.Q.Q.Q.Q.Q.Q.Q.}.e O + + + + + + + + + + @ +         ",
"      + + + + + + + + + + + + + + + + + O j J.Q.Q.Q.Q.Q.Q.!.y.k.P.Q.Q.Q.Q.Q.Q.Q.Q.Q.Q.R.- + + + + + @ O t.J.Q.Q.Q.Q.Q.Q.Q.U.8 + + + + + + + + + + + + +         ",
"      + + + + + + + + + + + + @ + + + + O @.P.Q.Q.Q.Q.Q.Q.Q.(.W j.Q.Q.Q.Q.Q.Q.Q.Q.Q.Q.!.-.@ + + + + O O d.Q.Q.Q.Q.Q.Q.Q.!.D.4 + + + + + + + + + + + + +         ",
"      + + + + + + + + + + + + + + + + + X z.Q.Q.Q.Q.Q.Q.Q.Q.Q.A.M ~.Q.Q.Q.Q.Q.Q.Q.Q.Q.Q.~.M o + + + O e f.Q.Q.Q.Q.Q.Q.Q.!.r.5 + + + + + + + + + + + + +         ",
"      + + + + + + + + @ + + + + + + + + $ I.P.Q.Q.Q.Q.Q.Q.Q.!.A.% :.!.Q.Q.Q.Q.Q.Q.Q.Q.Q.Q.R.q O + + O n G.Q.Q.Q.Q.Q.Q.Q.!.y.; + + + + + + + + @ + + + +         ",
"      + + + + + + + + + + + + + + + + O l G.Q.J.Q.Q.Q.Q.Q.Q.^.#.% ; U.Q.Q.Q.Q.Q.Q.Q.Q.Q.Q.Q.t.O + + o { Q.Q.Q.Q.Q.Q.Q.Q.!.V.q + + + + + + + + + + @ + +         ",
"      + + + + + + + + + + + + + + + O O Q K.Q.Q.Q.Q.Q.Q.Q.Q.].i + O T  XQ.Q.Q.Q.Q.Q.Q.Q.Q.Q.P.P . + O t.~.Q.Q.Q.Q.Q.Q.Q.!.V.; + + + + + + + + + + + + +         ",
"      + + + + + + + + + + + + + + + + . =.~.Q.Q.Q.Q.Q.Q.Q.!.N.5 + + & u.!.Q.Q.Q.Q.Q.Q.Q.Q.Q.Q.b.s X > r.!.Q.Q.Q.Q.Q.Q.Q.Q.Z.q + + + + + + + + + + + + +         ",
"      + + + + + + + @ + + + + + + + + O i.!.Q.Q.Q.Q.Q.Q.Q.^.] % + + + 7 '.Q.Q.Q.Q.Q.J.Q.Q.Q.Q.!.y.# j b.!.Q.Q.Q.Q.Q.Q.Q.!.O.- + + + + + + + + + + + + +         ",
"      + + + + + + + + + + + + + + + O 1 s.Q.Q.Q.Q.Q.Q.Q.Q.~.p O + + + + V /.Q.Q.Q.Q.Q.J.Q.Q.Q.Q.K.B M L.Q.Q.Q.Q.Q.Q.Q.Q./.{ % + + + + + + + + + + + + O         ",
"      + @ + + + + + + + + + + + + + O d v.Q.Q.Q.Q.Q.Q.Q.!.g.8 O + + + + - h.!.Q.Q.Q.Q.Q.Q.Q.Q.Q.Q.d.:.H.Q.Q.Q.Q.Q.Q.Q.Q./. .& + + + + + + + + + + + @ O         ",
"        + + + + + + + + + + + + + + O B L.Q.Q.Q.Q.Q.Q.Q./.} # + + + + + @ x ~.Q.Q.Q.Q.Q.Q.Q.Q.Q.Q.!.:.p.Q.J.J.Q.Q.Q.Q.Q.!.%.* + + + + + + + + + + + + O         ",
"        + + + + + + + + + + + + + + O ' !.Q.Q.Q.Q.Q.Q.Q.`.z O + + + + + + * ..!.Q.Q.Q.Q.Q.Q.Q.Q.Q.J.(.>.M.Q.Q.Q.Q.Q.Q.J./.%.* + + @ + + + + + + + + +           ",
"        @ + + + + + + + + + + + + + * w.^.J.Q.Q.Q.Q.Q.Q.M.j O + + + + + + O 8 d.!.Q.Q.Q.Q.Q.Q.Q.Q.Q.Q.U.-.Y.Q.Q.Q.Q.Q.Q.^.%., + + + + + + + + + + + +           ",
"        O + + + + + + + + + + + + O u s.Q.Q.Q.Q.Q.Q.Q./.a., O @ + + + + + + @ L ~.Q.Q.Q.Q.Q.Q.Q.Q.Q.J./.u.l.!.Q.Q.Q.Q.J.|.#.& + + + + + + + + + + + O           ",
"          + + + + + + + + + + + + O x L.Q.Q.Q.Q.Q.Q.Q.~.] O + + + + + + + + O ; p./.Q.Q.Q.Q.Q.Q.Q.Q.Q.Q./.=.g.Q.Q.Q.Q.Q. XV O @ + + + + + + + + + +             ",
"          + + + + + + + @ + + + O O N _.Q.Q.Q.Q.Q.Q.Q.b.h O + + + + + + + + + O c H.Q.Q.Q.Q.Q.Q.Q.Q.Q.Q.!.K.$.K.Q.Q.Q.Q..Xz O + + + @ + + + + + + +             ",
"          O + + + + + + + + + + + * ../.Q.Q.Q.Q.Q.Q.!.i.& + + + + + + + + @ + + + +.P.Q.Q.Q.Q.Q.Q.Q.Q.Q.Q.Q.I.Q (.J.Q.Q.{.m O @ + + + + + + + + + O             ",
"            + @ + + + + + + + + O e c.Q.Q.Q.Q.Q.Q.Q.P.{ O + + + + + + + + + + + O 1 f.Q.Q.Q.Q.Q.Q.Q.Q.Q.Q.Q.!.l.=.^.Q.Q.XXm O @ + + + + + + + + +               ",
"            + + + + + + + + + + O s I.Q.Q.Q.Q.Q.Q.Q.G.x O + + + + + + + + + + + O O M J.J.Q.Q.Q.Q.Q.Q.J.Q.Q.Q.Q.W T.Q.Q.oXM O O + + + + + + + + O               ",
"              + + + + + + + + + O m {.Q.Q.Q.Q.Q.Q.Q.d.$ O + + + + + + + + + + + + + O S.!.Q.Q.Q.Q.Q.Q.Q.Q.Q.Q.Q.~.$.Q.Q.XXn O @ + + + + + + + @ O               ",
"              + + + + + + + + + @ [ /.Q.Q.Q.Q.Q.Q.Q.o.. + + + + + + + + + + + + + + O r L.Q.Q.Q.Q.Q.Q.Q.Q.Q.Q.Q.P.Z.=.^.L.p O @ + + + + + + + O                 ",
"                + + + + + + + + ; y.!.Q.Q.Q.Q.Q.Q.G.x O + + + + + + + + + + + + + + @ O #.!.Q.Q.Q.Q.Q.Q.Q.Q.Q.Q.Q.K.=.i.U.d O O + + + + + + + O                 ",
"                + + + + + + + + 0 n.Q.Q.Q.Q.Q.Q.Q.U., + @ + + + + + + + + + + + + + + + O R.Q.Q.Q.Q.Q.Q.Q.Q.Q.Q.Q.!.d.[ }.h O @ + + + + + + O                   ",
"                  + + + + + + + u '.!.!.!.!.!.!.!.C.. + + + + + @ + + + + + + + + + + + + s ~.!.Q./.!.!.!.!.!.!.!.!.!.i.*.s O + + + + + + +                     ",
"                  O + + + + + O 7 s.e.e.e.e.e.e.e.Z O + + + + + + + + + + + + + + + + + @ + | e.e.e.e.e.e.e.e.e.e.e.e.w.Z * O @ + + + + + O                     ",
"                    + + + + + + % 4 3 3 3 3 3 3 3 % O + + + + + + + + + + + + + + + + + O + - 4 0 3 3 3 3 3 3 3 3 3 4 4 - + + + + + + + O                       ",
"                      + + + + + + O + O + O + O O + + + + + + + + + + + + + + + + + + + @ + + O O O O + O O O O + O O O + + + + + + + +                         ",
"                        + + + + + + + + + @ + + + + + + + + + + + + + @ + + + + + + + + + + + + @ + + @ + + @ + @ @ + + + + + + + + +                           ",
"                          + + + + + + + + + + + + + + + + + + + + + + + + + + + + + + + + + + + + + + + + + + + + + + + + + + + + +                             ",
"                            + + + + + + + + + + + + + + + + + + + + @ + + + + + + + + + + + + + + + + + + + + + + + + + + + + + @ X                             ",
"                              + + + + + + + @ + + + + + + @ + + + + + + + + + + + + + + + + + + @ + + + + + + + + + + + + + + +                                 ",
"                                + + + + + + + + + + + + + + + + + + + + + + + + + + + + + + + + + + + + + + + + + + + + + + +                                   ",
"                                  O + + + + + + + + + + + + + + + + + + + + + + + + + + + + + + + + + + + + + + + + + + + O                                     ",
"                                    O + + + + + + + + + + + + + + + + + + + + + + + + + + + + + + + + + + + + + + + + + O                                       ",
"                                        O @ + + + + + + + + + + + + + + + + + + + + @ + + + + + + + + + + + + + @ + O                                           ",
"                                          O O + + + + + + + + + + + + + + + @ + + + + + + + + + + + + @ + + + + O O                                             ",
"                                                + + + + + + + + + + + + + + + + + + + + + + + + + + + + + + + O                                                 ",
"                                                    O + + + + + + @ + + + + + + + + + + + + + + + + + + O                                                       ",
"                                                          + + + @ O + + + + + + + + O @ + + + + + +                                                             ",
"                                                                O O O + + + + + + + @ + O O O                                                                   ",
"                                                                                                                                                                ",
"                                                                                                                                                                ",
"                                                                                                                                                                ",
"                                                                                                                                                                "
};
